<svg width="33" height="32" viewBox="0 0 33 32" fill="none" xmlns="http://www.w3.org/2000/svg">
<path d="M16.166 8C20.5843 8 24.166 11.5817 24.166 16V22.6667C24.166 25.6121 21.7781 28 18.8327 28H13.4993C10.5538 28 8.16602 25.6121 8.16602 22.6667V16C8.16602 11.5817 11.7477 8 16.166 8Z" stroke="#042546" stroke-width="2" stroke-linecap="round" stroke-linejoin="round"/>
<path d="M13.499 8V6.66667C13.499 5.33333 14.8324 4 16.1657 4C17.499 4 18.8324 5.33333 18.8324 6.66667V8" stroke="#042546" stroke-width="2"/>
<path d="M13.499 21.3333H18.8324" stroke="#042546" stroke-width="2" stroke-linecap="round" stroke-linejoin="round"/>
<path d="M6.83301 22.6667V20" stroke="#042546" stroke-width="2" stroke-linecap="round" stroke-linejoin="round"/>
<path d="M25.499 22.6667V20" stroke="#042546" stroke-width="2" stroke-linecap="round" stroke-linejoin="round"/>
<path d="M16.1663 14.6667C16.9027 14.6667 17.4997 14.0697 17.4997 13.3333C17.4997 12.597 16.9027 12 16.1663 12C15.43 12 14.833 12.597 14.833 13.3333C14.833 14.0697 15.43 14.6667 16.1663 14.6667Z" fill="#042546"/>
</svg>
