<svg width="23" height="23" viewBox="0 0 23 23" fill="none" xmlns="http://www.w3.org/2000/svg">
<path d="M6.75 4.16659V3.08325H7.08333V4.16659V4.91659H7.83333H15.1667H15.9167V4.16659V3.08325H16.25V4.16659V4.91659H17H17.9167C18.5108 4.91659 19 5.4058 19 5.99992V18.8333C19 19.4274 18.5108 19.9166 17.9167 19.9166H5.08333C4.48257 19.9166 4.00013 19.43 4 18.8335C4 18.8334 4 18.8333 4 18.8333L4.00917 6.00045V5.99992C4.00917 5.39843 4.48738 4.91659 5.08333 4.91659H6H6.75V4.16659ZM4.33333 7.83325V8.58325H5.08333H17.9167H18.6667V7.83325V5.99992V5.24992H17.9167H5.08333H4.33333V5.99992V7.83325ZM17.9167 19.5833H18.6667V18.8333V9.66659V8.91659H17.9167H5.08333H4.33333V9.66659V18.8333V19.5833H5.08333H17.9167ZM8 11.3333V11.6666H7.66667V11.3333H8ZM15.3333 11.3333V11.6666H15V11.3333H15.3333ZM11.6667 11.3333V11.6666H11.3333V11.3333H11.6667Z" fill="black" stroke="#042546" stroke-width="1.5"/>
</svg>
