<svg width="33" height="32" viewBox="0 0 33 32" fill="none" xmlns="http://www.w3.org/2000/svg">
<path d="M26.8327 8H5.49935C4.76297 8 4.16602 8.59695 4.16602 9.33333V22.6667C4.16602 23.403 4.76297 24 5.49935 24H26.8327C27.5691 24 28.166 23.403 28.166 22.6667V9.33333C28.166 8.59695 27.5691 8 26.8327 8Z" stroke="#042546" stroke-width="2" stroke-linecap="round" stroke-linejoin="round"/>
<path d="M9.49902 13.3333H17.499" stroke="#042546" stroke-width="2" stroke-linecap="round" stroke-linejoin="round"/>
<path d="M9.49902 18.6667H12.1657" stroke="#042546" stroke-width="2" stroke-linecap="round" stroke-linejoin="round"/>
<path d="M4.16602 20C5.05491 20.4444 6.83268 21.8667 6.83268 24" stroke="#042546" stroke-width="2"/>
<path d="M28.1657 20C27.2768 20.4444 25.499 21.8667 25.499 24" stroke="#042546" stroke-width="2"/>
<path d="M4.16602 12C5.05491 11.5556 6.83268 10.1333 6.83268 8" stroke="#042546" stroke-width="2"/>
<path d="M28.1657 12C27.2768 11.5556 25.499 10.1333 25.499 8" stroke="#042546" stroke-width="2"/>
</svg>
