<svg width="22" height="23" viewBox="0 0 22 23" fill="none" xmlns="http://www.w3.org/2000/svg">
<path d="M10.4945 18.782L11.0003 19.2441L11.5062 18.782C13.3911 17.06 14.8145 15.4535 15.7715 13.9801C16.7236 12.5142 17.2503 11.124 17.2503 9.84992C17.2503 6.11798 14.4951 3.41659 11.0003 3.41659C7.50557 3.41659 4.75033 6.11798 4.75033 9.84992C4.75033 11.124 5.27703 12.5142 6.22916 13.9801C7.18617 15.4535 8.60958 17.06 10.4945 18.782ZM11.0003 10.7499C10.4062 10.7499 9.91699 10.2607 9.91699 9.66659C9.91699 9.07247 10.4062 8.58325 11.0003 8.58325C11.5944 8.58325 12.0837 9.07247 12.0837 9.66659C12.0837 10.2607 11.5944 10.7499 11.0003 10.7499ZM11.0003 3.08325C14.4594 3.08325 17.5837 5.72208 17.5837 9.84992C17.5837 11.1694 17.0518 12.6848 15.8785 14.4144C14.7871 16.0233 13.168 17.777 11.0003 19.6752C8.83263 17.777 7.21352 16.0233 6.12215 14.4144C4.94889 12.6848 4.41699 11.1694 4.41699 9.84992C4.41699 5.72208 7.54121 3.08325 11.0003 3.08325Z" fill="black" stroke="#042546" stroke-width="1.5"/>
</svg>
