<svg width="24" height="24" viewBox="0 0 24 24" fill="#000" xmlns="http://www.w3.org/2000/svg">
<path d="M14.8748 23.8311H0V0H17.639V7.33165L16.0644 8.80436V1.58746H1.57142V22.2404H13.0036L14.8748 23.8311Z" fill="#000"/>
<path d="M8.61126 10.6818V12.2694H3.15546V10.6818H8.61126Z" fill="#000"/>
<path d="M14.4803 7.51327V9.10089H3.15546V7.51327H14.4803Z" fill="#000"/>
<path d="M14.4803 4.34473V5.93234H3.15546V4.34473H14.4803Z" fill="#000"/>
<path d="M13.458 18.4439H11.1672V15.0554H13.4612L17.6958 11.2621V22.2372L13.458 18.4439Z" fill="#000"/>
<path d="M16.9101 13.0248V20.4744L13.761 17.6533H11.956V15.8491H13.761L16.9101 13.028M18.4815 9.49608L13.1646 14.2585H10.3846V19.2376H13.1646L18.4847 24V9.49289L18.4815 9.49608Z" fill="#000"/>
<path d="M20.3277 14.2614C21.6753 15.6227 21.7454 17.8374 20.397 19.1995L19.2858 18.077C19.9822 17.3735 19.9894 16.1647 19.2165 15.384L20.3277 14.2614Z" fill="#000"/>
<path d="M22.4703 13.1362C24.4457 15.1318 24.5348 18.3507 22.5806 20.3249L21.4694 19.2024C22.7715 17.8869 22.76 15.6739 21.3591 14.2587L22.4703 13.1362Z" fill="#000"/>
</svg>
