<svg width="24" height="24" viewBox="0 0 24 24" xmlns="http://www.w3.org/2000/svg">
<path d="M3.75 16.5C2.92275 16.5 2.25 15.8273 2.25 15C2.25 14.586 2.586 14.25 3 14.25C3.414 14.25 3.75 14.586 3.75 15V15.0011C4.164 15.0011 4.5 15.3364 4.5 15.7504C4.5 16.1644 4.164 16.5 3.75 16.5Z" />
<path d="M2.99963 9.75C2.58525 9.75 2.25 9.414 2.25 9C2.25 8.17275 2.92275 7.5 3.75 7.5C4.164 7.5 4.5 7.836 4.5 8.25C4.5 8.664 4.164 9 3.75 9H3.74925C3.74925 9.414 3.414 9.75 2.99963 9.75Z" />
<path d="M13.4975 21.75C13.3366 21.75 13.1742 21.6983 13.0374 21.5918L6.28961 16.3418C5.96261 16.0875 5.90373 15.6161 6.15799 15.2891C6.41261 14.9629 6.88399 14.9036 7.21061 15.1579L13.9584 20.4079C14.2854 20.6621 14.3442 21.1335 14.09 21.4605C13.9419 21.6503 13.7206 21.75 13.4975 21.75Z" />
<path d="M6.75 16.5H3.75C3.336 16.5 3 16.164 3 15.75C3 15.336 3.336 15 3.75 15H6V9H3.75C3.336 9 3 8.664 3 8.25C3 7.836 3.336 7.5 3.75 7.5H6.75C7.164 7.5 7.5 7.836 7.5 8.25V15.75C7.5 16.164 7.164 16.5 6.75 16.5Z" />
<path d="M3 15.75C2.586 15.75 2.25 15.414 2.25 15V9C2.25 8.586 2.586 8.25 3 8.25C3.414 8.25 3.75 8.586 3.75 9V15C3.75 15.414 3.414 15.75 3 15.75Z" />
<path d="M6.75049 8.99992C6.52699 8.99992 6.30574 8.90055 6.15799 8.7108C5.90373 8.3838 5.96261 7.91242 6.28961 7.65817L13.0374 2.40817C13.364 2.15355 13.8354 2.2128 14.09 2.53942C14.3442 2.86642 14.2854 3.3378 13.9584 3.59205L7.21061 8.84205C7.07374 8.94817 6.91174 8.99992 6.75049 8.99992Z" />
<path d="M16.1244 16.9933C15.9591 16.9933 15.7926 16.9385 15.6538 16.8268C15.3317 16.5665 15.2814 16.0944 15.5417 15.7719C17.3076 13.586 17.3076 10.4132 15.5417 8.22729C15.2814 7.90517 15.3313 7.43304 15.6538 7.17242C15.9763 6.91217 16.4484 6.96242 16.7087 7.28454C18.9163 10.0164 18.9163 13.9824 16.7087 16.7143C16.5602 16.8984 16.3431 16.9933 16.1244 16.9933Z" />
<path d="M13.498 21.75C13.084 21.75 12.748 21.414 12.748 21V3C12.748 2.586 13.084 2.25 13.498 2.25C13.912 2.25 14.248 2.586 14.248 3V21C14.248 21.414 13.9124 21.75 13.498 21.75Z" />
<path d="M19.4994 16.9933C19.3341 16.9933 19.1676 16.9385 19.0288 16.8268C18.7067 16.5665 18.6564 16.0944 18.9167 15.7719C20.6826 13.586 20.6826 10.4132 18.9167 8.22729C18.6564 7.90517 18.7063 7.43304 19.0288 7.17242C19.3513 6.91217 19.8234 6.96242 20.0837 7.28454C22.2913 10.0164 22.2913 13.9824 20.0837 16.7143C19.9352 16.8984 19.7181 16.9933 19.4994 16.9933Z" />
</svg>
