<svg width="11" height="12" viewBox="0 0 11 12" xmlns="http://www.w3.org/2000/svg">
<path d="M5.73092 2.72727V4.36364L8.154 2.18182L5.73092 0V1.63636C3.05342 1.63636 0.884766 3.58909 0.884766 6C0.884766 6.85636 1.16342 7.65273 1.63592 8.32364L2.52034 7.52727C2.24775 7.07455 2.0963 6.55091 2.0963 6C2.0963 4.19455 3.72582 2.72727 5.73092 2.72727ZM9.82592 3.67636L8.9415 4.47273C9.20804 4.93091 9.36554 5.44909 9.36554 6C9.36554 7.80545 7.73602 9.27273 5.73092 9.27273V7.63636L3.30784 9.81818L5.73092 12V10.3636C8.40842 10.3636 10.5771 8.41091 10.5771 6C10.5771 5.14364 10.2984 4.34727 9.82592 3.67636Z" fill="#06B3EF"/>
</svg>
